<svg width="181" height="211" viewBox="0 0 181 211" fill="none" xmlns="http://www.w3.org/2000/svg">
<path d="M2.8234 208.5L22.2136 49.5H157.306L178.151 208.5H2.8234Z" stroke="black" stroke-opacity="0.5" stroke-width="5"/>
<path d="M126 67V38.5C126 18.8939 110.106 3 90.5 3V3C70.8939 3 55 18.8939 55 38.5V67" stroke="black" stroke-opacity="0.5" stroke-width="6"/>
<g clip-path="url(#clip0)">
<path d="M68.6358 159.959V159.859L68.5591 159.859C68.5842 159.893 68.6106 159.926 68.6358 159.959Z" fill="url(#paint0_linear)" fill-opacity="0.68"/>
<path d="M102.692 117.063C99.5789 115.325 96.0942 114.339 92.5218 114.183C92.1311 114.17 91.7399 114.159 91.3455 114.161C90.951 114.164 90.56 114.18 90.1695 114.198C84.322 114.535 78.8283 117.075 74.8213 121.295C70.8143 125.516 68.5997 131.094 68.6342 136.88L68.781 159.98L68.8017 160L80.2873 159.871L80.3075 159.85L80.2856 156.415L80.1663 137.65C80.1275 131.542 84.9422 126.338 91.1226 126.143C92.6346 126.094 94.1412 126.345 95.5535 126.881C96.9658 127.416 98.2551 128.226 99.3455 129.262C100.436 130.298 101.305 131.539 101.902 132.912C102.499 134.285 102.811 135.763 102.821 137.257L102.942 156.274L102.963 159.595L102.983 159.615L114.469 159.485L114.489 159.465L114.344 136.597C114.319 132.615 113.229 128.71 111.182 125.279C109.136 121.848 106.207 119.013 102.692 117.063V117.063Z" fill="url(#paint1_linear)" fill-opacity="0.68"/>
<path d="M90.4994 90.9943C96.5563 90.9871 102.552 92.1938 108.123 94.5414C113.694 96.889 118.725 100.329 122.912 104.652C123.891 105.662 125.206 106.287 126.615 106.413C128.025 106.538 129.432 106.156 130.578 105.336V105.336C131.268 104.842 131.841 104.205 132.256 103.47C132.671 102.734 132.919 101.919 132.983 101.079C133.047 100.239 132.925 99.3961 132.625 98.6078C132.325 97.8196 131.856 97.1053 131.248 96.5147C120.391 85.9329 105.752 80 90.4994 80C75.2472 80 60.6083 85.9329 49.7508 96.5147C49.1433 97.1053 48.6734 97.8196 48.3738 98.6078C48.0741 99.3961 47.9519 100.239 48.0157 101.079C48.0795 101.919 48.3276 102.734 48.743 103.47C49.1583 104.205 49.7308 104.842 50.4207 105.336V105.336C51.5666 106.156 52.9742 106.538 54.3834 106.413C55.7925 106.287 57.108 105.662 58.0868 104.652C62.2735 100.329 67.3047 96.889 72.8759 94.5414C78.4471 92.1938 84.4426 90.9871 90.4994 90.9943V90.9943Z" fill="url(#paint2_linear)" fill-opacity="0.68"/>
<path d="M121.92 111.534C116.754 105.139 109.704 100.489 101.745 98.2266C93.7867 95.9641 85.313 96.201 77.4968 98.9045C69.6805 101.608 62.9081 106.645 58.1166 113.317C53.3251 119.99 50.7514 127.969 50.7517 136.15C50.7517 136.487 50.756 136.822 50.7647 137.157C50.8129 138.636 51.4448 140.037 52.5254 141.062C53.6059 142.086 55.0493 142.652 56.5469 142.639L56.5608 142.639C57.3213 142.637 58.0738 142.485 58.7744 142.193C59.4751 141.9 60.1101 141.474 60.6425 140.937C61.1749 140.4 61.5941 139.765 61.8759 139.067C62.1576 138.369 62.2962 137.623 62.2837 136.872C62.2804 136.697 62.2787 136.522 62.2787 136.346C62.2787 128.9 65.273 121.759 70.6027 116.494C75.9325 111.229 83.1613 108.271 90.6987 108.271C98.2362 108.271 105.465 111.229 110.795 116.494C116.124 121.759 119.119 128.9 119.119 136.346C119.119 136.399 119.119 136.453 119.118 136.506C119.109 137.264 119.252 138.015 119.539 138.717C119.826 139.42 120.251 140.059 120.79 140.597C121.329 141.135 121.972 141.563 122.679 141.854C123.387 142.145 124.146 142.294 124.913 142.293C126.422 142.285 127.867 141.693 128.938 140.644C130.01 139.595 130.622 138.172 130.642 136.682C130.645 136.505 130.646 136.327 130.646 136.15C130.659 127.202 127.581 118.518 121.92 111.534V111.534Z" fill="url(#paint3_linear)" fill-opacity="0.68"/>
</g>
<path d="M65.774 168V170.466H62.426V180.636H59.348V170.466H56V168H65.774Z" fill="black" fill-opacity="0.35"/>
<path d="M76.7868 175.452C76.7868 175.74 76.7688 176.04 76.7328 176.352H69.7668C69.8148 176.976 70.0128 177.456 70.3608 177.792C70.7208 178.116 71.1588 178.278 71.6748 178.278C72.4428 178.278 72.9768 177.954 73.2768 177.306H76.5528C76.3848 177.966 76.0788 178.56 75.6348 179.088C75.2028 179.616 74.6568 180.03 73.9968 180.33C73.3368 180.63 72.5988 180.78 71.7828 180.78C70.7988 180.78 69.9228 180.57 69.1548 180.15C68.3868 179.73 67.7868 179.13 67.3548 178.35C66.9228 177.57 66.7068 176.658 66.7068 175.614C66.7068 174.57 66.9168 173.658 67.3368 172.878C67.7688 172.098 68.3688 171.498 69.1368 171.078C69.9048 170.658 70.7868 170.448 71.7828 170.448C72.7548 170.448 73.6188 170.652 74.3748 171.06C75.1308 171.468 75.7188 172.05 76.1388 172.806C76.5708 173.562 76.7868 174.444 76.7868 175.452ZM73.6368 174.642C73.6368 174.114 73.4568 173.694 73.0968 173.382C72.7368 173.07 72.2868 172.914 71.7468 172.914C71.2308 172.914 70.7928 173.064 70.4328 173.364C70.0848 173.664 69.8688 174.09 69.7848 174.642H73.6368Z" fill="black" fill-opacity="0.35"/>
<path d="M91.2266 170.484C92.4746 170.484 93.4646 170.862 94.1966 171.618C94.9406 172.374 95.3126 173.424 95.3126 174.768V180.636H92.2526V175.182C92.2526 174.534 92.0786 174.036 91.7306 173.688C91.3946 173.328 90.9266 173.148 90.3266 173.148C89.7266 173.148 89.2526 173.328 88.9046 173.688C88.5686 174.036 88.4006 174.534 88.4006 175.182V180.636H85.3406V175.182C85.3406 174.534 85.1666 174.036 84.8186 173.688C84.4826 173.328 84.0146 173.148 83.4146 173.148C82.8146 173.148 82.3406 173.328 81.9926 173.688C81.6566 174.036 81.4886 174.534 81.4886 175.182V180.636H78.4106V170.592H81.4886V171.852C81.8006 171.432 82.2086 171.102 82.7126 170.862C83.2166 170.61 83.7866 170.484 84.4226 170.484C85.1786 170.484 85.8506 170.646 86.4386 170.97C87.0386 171.294 87.5066 171.756 87.8426 172.356C88.1906 171.804 88.6646 171.354 89.2646 171.006C89.8646 170.658 90.5186 170.484 91.2266 170.484Z" fill="black" fill-opacity="0.35"/>
<path d="M100.543 172.014C100.843 171.546 101.257 171.168 101.785 170.88C102.313 170.592 102.931 170.448 103.639 170.448C104.467 170.448 105.217 170.658 105.889 171.078C106.561 171.498 107.089 172.098 107.473 172.878C107.869 173.658 108.067 174.564 108.067 175.596C108.067 176.628 107.869 177.54 107.473 178.332C107.089 179.112 106.561 179.718 105.889 180.15C105.217 180.57 104.467 180.78 103.639 180.78C102.943 180.78 102.325 180.636 101.785 180.348C101.257 180.06 100.843 179.688 100.543 179.232V185.424H97.4653V170.592H100.543V172.014ZM104.935 175.596C104.935 174.828 104.719 174.228 104.287 173.796C103.867 173.352 103.345 173.13 102.721 173.13C102.109 173.13 101.587 173.352 101.155 173.796C100.735 174.24 100.525 174.846 100.525 175.614C100.525 176.382 100.735 176.988 101.155 177.432C101.587 177.876 102.109 178.098 102.721 178.098C103.333 178.098 103.855 177.876 104.287 177.432C104.719 176.976 104.935 176.364 104.935 175.596Z" fill="black" fill-opacity="0.35"/>
<path d="M114.254 180.78C113.27 180.78 112.382 180.57 111.59 180.15C110.81 179.73 110.192 179.13 109.736 178.35C109.292 177.57 109.07 176.658 109.07 175.614C109.07 174.582 109.298 173.676 109.754 172.896C110.21 172.104 110.834 171.498 111.626 171.078C112.418 170.658 113.306 170.448 114.29 170.448C115.274 170.448 116.162 170.658 116.954 171.078C117.746 171.498 118.37 172.104 118.826 172.896C119.282 173.676 119.51 174.582 119.51 175.614C119.51 176.646 119.276 177.558 118.808 178.35C118.352 179.13 117.722 179.73 116.918 180.15C116.126 180.57 115.238 180.78 114.254 180.78ZM114.254 178.116C114.842 178.116 115.34 177.9 115.748 177.468C116.168 177.036 116.378 176.418 116.378 175.614C116.378 174.81 116.174 174.192 115.766 173.76C115.37 173.328 114.878 173.112 114.29 173.112C113.69 173.112 113.192 173.328 112.796 173.76C112.4 174.18 112.202 174.798 112.202 175.614C112.202 176.418 112.394 177.036 112.778 177.468C113.174 177.9 113.666 178.116 114.254 178.116Z" fill="black" fill-opacity="0.35"/>
<path d="M125.229 180.78C124.353 180.78 123.573 180.63 122.889 180.33C122.205 180.03 121.665 179.622 121.269 179.106C120.873 178.578 120.651 177.99 120.603 177.342H123.645C123.681 177.69 123.843 177.972 124.131 178.188C124.419 178.404 124.773 178.512 125.193 178.512C125.577 178.512 125.871 178.44 126.075 178.296C126.291 178.14 126.399 177.942 126.399 177.702C126.399 177.414 126.249 177.204 125.949 177.072C125.649 176.928 125.163 176.772 124.491 176.604C123.771 176.436 123.171 176.262 122.691 176.082C122.211 175.89 121.797 175.596 121.449 175.2C121.101 174.792 120.927 174.246 120.927 173.562C120.927 172.986 121.083 172.464 121.395 171.996C121.719 171.516 122.187 171.138 122.799 170.862C123.423 170.586 124.161 170.448 125.013 170.448C126.273 170.448 127.263 170.76 127.983 171.384C128.715 172.008 129.135 172.836 129.243 173.868H126.399C126.351 173.52 126.195 173.244 125.931 173.04C125.679 172.836 125.343 172.734 124.923 172.734C124.563 172.734 124.287 172.806 124.095 172.95C123.903 173.082 123.807 173.268 123.807 173.508C123.807 173.796 123.957 174.012 124.257 174.156C124.569 174.3 125.049 174.444 125.697 174.588C126.441 174.78 127.047 174.972 127.515 175.164C127.983 175.344 128.391 175.644 128.739 176.064C129.099 176.472 129.285 177.024 129.297 177.72C129.297 178.308 129.129 178.836 128.793 179.304C128.469 179.76 127.995 180.12 127.371 180.384C126.759 180.648 126.045 180.78 125.229 180.78Z" fill="black" fill-opacity="0.35"/>
<defs>
<linearGradient id="paint0_linear" x1="68.5974" y1="159.859" x2="68.5974" y2="159.959" gradientUnits="userSpaceOnUse">
<stop offset="0.36925" stop-color="#A49899"/>
<stop offset="0.9999" stop-color="#A49790"/>
</linearGradient>
<linearGradient id="paint1_linear" x1="91.5615" y1="114.161" x2="91.5615" y2="160" gradientUnits="userSpaceOnUse">
<stop offset="0.36925" stop-color="#A49899"/>
<stop offset="0.9999" stop-color="#A49790"/>
</linearGradient>
<linearGradient id="paint2_linear" x1="90.4994" y1="80" x2="90.4994" y2="106.436" gradientUnits="userSpaceOnUse">
<stop offset="0.36925" stop-color="#A49899"/>
<stop offset="0.9999" stop-color="#A49790"/>
</linearGradient>
<linearGradient id="paint3_linear" x1="90.6987" y1="96.6875" x2="90.6987" y2="142.64" gradientUnits="userSpaceOnUse">
<stop offset="0.36925" stop-color="#A49899"/>
<stop offset="0.9999" stop-color="#A49790"/>
</linearGradient>
<clipPath id="clip0">
<rect width="85" height="80" fill="white" transform="translate(48 80)"/>
</clipPath>
</defs>
</svg>
