<svg width="155" height="197" viewBox="0 0 155 197" fill="none" xmlns="http://www.w3.org/2000/svg">
<rect y="30" width="134" height="167" fill="#C4C4C4"/>
<path d="M134 30H155V184L134 197V30Z" fill="#A8A6A6"/>
<g clip-path="url(#clip0)">
<path d="M45.6358 144.959V144.859L45.5591 144.859C45.5842 144.893 45.6106 144.926 45.6358 144.959Z" fill="url(#paint0_linear)" fill-opacity="0.68"/>
<path d="M79.6924 102.063C76.5789 100.325 73.0942 99.339 69.5218 99.1835C69.1311 99.1704 68.7399 99.159 68.3455 99.1614C67.951 99.1639 67.56 99.1802 67.1695 99.1981C61.322 99.5345 55.8283 102.075 51.8213 106.295C47.8143 110.516 45.5997 116.094 45.6342 121.88L45.781 144.98L45.8017 145L57.2873 144.871L57.3075 144.85L57.2856 141.415L57.1663 122.65C57.1275 116.542 61.9422 111.338 68.1226 111.143C69.6346 111.094 71.1412 111.345 72.5535 111.881C73.9658 112.416 75.2551 113.226 76.3455 114.262C77.4358 115.298 78.3051 116.539 78.902 117.912C79.4989 119.285 79.8113 120.763 79.8208 122.257L79.9417 141.274L79.9628 144.595L79.9835 144.615L91.4691 144.485L91.4892 144.465L91.3438 121.597C91.3194 117.615 90.2286 113.71 88.1822 110.279C86.1358 106.848 83.2067 104.013 79.6924 102.063V102.063Z" fill="url(#paint1_linear)" fill-opacity="0.68"/>
<path d="M67.4994 75.9943C73.5563 75.9871 79.5517 77.1938 85.1229 79.5414C90.6941 81.889 95.7253 85.3287 99.9121 89.6523C100.891 90.6617 102.206 91.2869 103.615 91.4127C105.025 91.5384 106.432 91.1561 107.578 90.3363V90.3363C108.268 89.8419 108.841 89.2048 109.256 88.4696C109.671 87.7343 109.919 86.9185 109.983 86.0789C110.047 85.2393 109.925 84.3961 109.625 83.6078C109.325 82.8196 108.856 82.1053 108.248 81.5147C97.3906 70.9329 82.7517 65 67.4994 65C52.2472 65 37.6083 70.9329 26.7508 81.5147C26.1433 82.1053 25.6734 82.8196 25.3738 83.6078C25.0741 84.3961 24.9519 85.2393 25.0157 86.0789C25.0795 86.9185 25.3276 87.7344 25.743 88.4696C26.1583 89.2048 26.7308 89.8419 27.4207 90.3364V90.3364C28.5666 91.1561 29.9742 91.5384 31.3834 91.4127C32.7925 91.2869 34.108 90.6617 35.0868 89.6523C39.2735 85.3287 44.3047 81.889 49.8759 79.5414C55.4471 77.1938 61.4426 75.9871 67.4994 75.9943V75.9943Z" fill="url(#paint2_linear)" fill-opacity="0.68"/>
<path d="M98.9195 96.5336C93.7537 90.1393 86.7038 85.4892 78.7452 83.2266C70.7867 80.9641 62.313 81.201 54.4968 83.9045C46.6805 86.6081 39.9081 91.6446 35.1166 98.3172C30.3251 104.99 27.7514 112.969 27.7517 121.15C27.7517 121.487 27.756 121.822 27.7647 122.157C27.8129 123.636 28.4448 125.037 29.5254 126.062C30.6059 127.086 32.0493 127.652 33.5469 127.639L33.5608 127.639C34.3213 127.637 35.0738 127.485 35.7744 127.193C36.4751 126.9 37.1101 126.474 37.6425 125.937C38.1749 125.4 38.5941 124.765 38.8759 124.067C39.1576 123.369 39.2962 122.623 39.2837 121.872C39.2804 121.697 39.2787 121.522 39.2787 121.346C39.2787 113.9 42.273 106.759 47.6027 101.494C52.9325 96.229 60.1613 93.2711 67.6987 93.2711C75.2362 93.2711 82.4649 96.229 87.7947 101.494C93.1245 106.759 96.1187 113.9 96.1187 121.346C96.1187 121.399 96.1186 121.453 96.1183 121.506C96.1087 122.264 96.2516 123.015 96.5386 123.717C96.8257 124.42 97.2511 125.059 97.7903 125.597C98.3295 126.135 98.9716 126.563 99.6793 126.854C100.387 127.145 101.146 127.294 101.913 127.293C103.422 127.285 104.867 126.693 105.938 125.644C107.01 124.595 107.622 123.172 107.642 121.682C107.645 121.505 107.646 121.327 107.646 121.15C107.659 112.202 104.581 103.518 98.9195 96.5336V96.5336Z" fill="url(#paint3_linear)" fill-opacity="0.68"/>
</g>
<path d="M105 41V37.5C105 17.8939 89.1061 2 69.5 2V2C49.8939 2 34 17.8939 34 37.5V41" stroke="#9A9A9A" stroke-width="3" stroke-linecap="round" stroke-linejoin="round"/>
<path d="M42.4578 155.364V157.83H39.1098V168H36.0318V157.83H32.6838V155.364H42.4578Z" fill="black" fill-opacity="0.35"/>
<path d="M53.4706 162.816C53.4706 163.104 53.4526 163.404 53.4166 163.716H46.4506C46.4986 164.34 46.6966 164.82 47.0446 165.156C47.4046 165.48 47.8426 165.642 48.3586 165.642C49.1266 165.642 49.6606 165.318 49.9606 164.67H53.2366C53.0686 165.33 52.7626 165.924 52.3186 166.452C51.8866 166.98 51.3406 167.394 50.6806 167.694C50.0206 167.994 49.2826 168.144 48.4666 168.144C47.4826 168.144 46.6066 167.934 45.8386 167.514C45.0706 167.094 44.4706 166.494 44.0386 165.714C43.6066 164.934 43.3906 164.022 43.3906 162.978C43.3906 161.934 43.6006 161.022 44.0206 160.242C44.4526 159.462 45.0526 158.862 45.8206 158.442C46.5886 158.022 47.4706 157.812 48.4666 157.812C49.4386 157.812 50.3026 158.016 51.0586 158.424C51.8146 158.832 52.4026 159.414 52.8226 160.17C53.2546 160.926 53.4706 161.808 53.4706 162.816ZM50.3206 162.006C50.3206 161.478 50.1406 161.058 49.7806 160.746C49.4206 160.434 48.9706 160.278 48.4306 160.278C47.9146 160.278 47.4766 160.428 47.1166 160.728C46.7686 161.028 46.5526 161.454 46.4686 162.006H50.3206Z" fill="black" fill-opacity="0.35"/>
<path d="M67.9104 157.848C69.1584 157.848 70.1484 158.226 70.8804 158.982C71.6244 159.738 71.9964 160.788 71.9964 162.132V168H68.9364V162.546C68.9364 161.898 68.7624 161.4 68.4144 161.052C68.0784 160.692 67.6104 160.512 67.0104 160.512C66.4104 160.512 65.9364 160.692 65.5884 161.052C65.2524 161.4 65.0844 161.898 65.0844 162.546V168H62.0244V162.546C62.0244 161.898 61.8504 161.4 61.5024 161.052C61.1664 160.692 60.6984 160.512 60.0984 160.512C59.4984 160.512 59.0244 160.692 58.6764 161.052C58.3404 161.4 58.1724 161.898 58.1724 162.546V168H55.0944V157.956H58.1724V159.216C58.4844 158.796 58.8924 158.466 59.3964 158.226C59.9004 157.974 60.4704 157.848 61.1064 157.848C61.8624 157.848 62.5344 158.01 63.1224 158.334C63.7224 158.658 64.1904 159.12 64.5264 159.72C64.8744 159.168 65.3484 158.718 65.9484 158.37C66.5484 158.022 67.2024 157.848 67.9104 157.848Z" fill="black" fill-opacity="0.35"/>
<path d="M77.2271 159.378C77.5271 158.91 77.9411 158.532 78.4691 158.244C78.9971 157.956 79.6151 157.812 80.3231 157.812C81.1511 157.812 81.9011 158.022 82.5731 158.442C83.2451 158.862 83.7731 159.462 84.1571 160.242C84.5531 161.022 84.7511 161.928 84.7511 162.96C84.7511 163.992 84.5531 164.904 84.1571 165.696C83.7731 166.476 83.2451 167.082 82.5731 167.514C81.9011 167.934 81.1511 168.144 80.3231 168.144C79.6271 168.144 79.0091 168 78.4691 167.712C77.9411 167.424 77.5271 167.052 77.2271 166.596V172.788H74.1491V157.956H77.2271V159.378ZM81.6191 162.96C81.6191 162.192 81.4031 161.592 80.9711 161.16C80.5511 160.716 80.0291 160.494 79.4051 160.494C78.7931 160.494 78.2711 160.716 77.8391 161.16C77.4191 161.604 77.2091 162.21 77.2091 162.978C77.2091 163.746 77.4191 164.352 77.8391 164.796C78.2711 165.24 78.7931 165.462 79.4051 165.462C80.0171 165.462 80.5391 165.24 80.9711 164.796C81.4031 164.34 81.6191 163.728 81.6191 162.96Z" fill="black" fill-opacity="0.35"/>
<path d="M90.9379 168.144C89.9539 168.144 89.0659 167.934 88.2739 167.514C87.4939 167.094 86.8759 166.494 86.4199 165.714C85.9759 164.934 85.7539 164.022 85.7539 162.978C85.7539 161.946 85.9819 161.04 86.4379 160.26C86.8939 159.468 87.5179 158.862 88.3099 158.442C89.1019 158.022 89.9899 157.812 90.9739 157.812C91.9579 157.812 92.8459 158.022 93.6379 158.442C94.4299 158.862 95.0539 159.468 95.5099 160.26C95.9659 161.04 96.1939 161.946 96.1939 162.978C96.1939 164.01 95.9599 164.922 95.4919 165.714C95.0359 166.494 94.4059 167.094 93.6019 167.514C92.8099 167.934 91.9219 168.144 90.9379 168.144ZM90.9379 165.48C91.5259 165.48 92.0239 165.264 92.4319 164.832C92.8519 164.4 93.0619 163.782 93.0619 162.978C93.0619 162.174 92.8579 161.556 92.4499 161.124C92.0539 160.692 91.5619 160.476 90.9739 160.476C90.3739 160.476 89.8759 160.692 89.4799 161.124C89.0839 161.544 88.8859 162.162 88.8859 162.978C88.8859 163.782 89.0779 164.4 89.4619 164.832C89.8579 165.264 90.3499 165.48 90.9379 165.48Z" fill="black" fill-opacity="0.35"/>
<path d="M101.913 168.144C101.037 168.144 100.257 167.994 99.5728 167.694C98.8888 167.394 98.3488 166.986 97.9528 166.47C97.5568 165.942 97.3348 165.354 97.2868 164.706H100.329C100.365 165.054 100.527 165.336 100.815 165.552C101.103 165.768 101.457 165.876 101.877 165.876C102.261 165.876 102.555 165.804 102.759 165.66C102.975 165.504 103.083 165.306 103.083 165.066C103.083 164.778 102.933 164.568 102.633 164.436C102.333 164.292 101.847 164.136 101.175 163.968C100.455 163.8 99.8548 163.626 99.3748 163.446C98.8948 163.254 98.4808 162.96 98.1328 162.564C97.7848 162.156 97.6108 161.61 97.6108 160.926C97.6108 160.35 97.7668 159.828 98.0788 159.36C98.4028 158.88 98.8708 158.502 99.4828 158.226C100.107 157.95 100.845 157.812 101.697 157.812C102.957 157.812 103.947 158.124 104.667 158.748C105.399 159.372 105.819 160.2 105.927 161.232H103.083C103.035 160.884 102.879 160.608 102.615 160.404C102.363 160.2 102.027 160.098 101.607 160.098C101.247 160.098 100.971 160.17 100.779 160.314C100.587 160.446 100.491 160.632 100.491 160.872C100.491 161.16 100.641 161.376 100.941 161.52C101.253 161.664 101.733 161.808 102.381 161.952C103.125 162.144 103.731 162.336 104.199 162.528C104.667 162.708 105.075 163.008 105.423 163.428C105.783 163.836 105.969 164.388 105.981 165.084C105.981 165.672 105.813 166.2 105.477 166.668C105.153 167.124 104.679 167.484 104.055 167.748C103.443 168.012 102.729 168.144 101.913 168.144Z" fill="black" fill-opacity="0.35"/>
<defs>
<linearGradient id="paint0_linear" x1="45.5974" y1="144.859" x2="45.5974" y2="144.959" gradientUnits="userSpaceOnUse">
<stop offset="0.36925" stop-color="#A49899"/>
<stop offset="0.9999" stop-color="#A49790"/>
</linearGradient>
<linearGradient id="paint1_linear" x1="68.5615" y1="99.1611" x2="68.5615" y2="145" gradientUnits="userSpaceOnUse">
<stop offset="0.36925" stop-color="#A49899"/>
<stop offset="0.9999" stop-color="#A49790"/>
</linearGradient>
<linearGradient id="paint2_linear" x1="67.4994" y1="65" x2="67.4994" y2="91.4361" gradientUnits="userSpaceOnUse">
<stop offset="0.36925" stop-color="#A49899"/>
<stop offset="0.9999" stop-color="#A49790"/>
</linearGradient>
<linearGradient id="paint3_linear" x1="67.6987" y1="81.6875" x2="67.6987" y2="127.64" gradientUnits="userSpaceOnUse">
<stop offset="0.36925" stop-color="#A49899"/>
<stop offset="0.9999" stop-color="#A49790"/>
</linearGradient>
<clipPath id="clip0">
<rect width="85" height="80" fill="white" transform="translate(25 65)"/>
</clipPath>
</defs>
</svg>
