<svg width="65" height="61" viewBox="0 0 65 61" fill="none" xmlns="http://www.w3.org/2000/svg">
<rect x="2.11806" y="2.11806" width="60.1528" height="56.7639" rx="13.1319" fill="white" stroke="#272727" stroke-width="4.23611"/>
<path d="M41.867 41.0903C42.8032 41.0903 43.7011 41.4622 44.3631 42.1243C45.0251 42.7863 45.3971 43.6842 45.3971 44.6204C45.3971 45.5567 45.0251 46.4545 44.3631 47.1166C43.7011 47.7786 42.8032 48.1505 41.867 48.1505C40.9307 48.1505 40.0328 47.7786 39.3708 47.1166C38.7088 46.4545 38.3369 45.5567 38.3369 44.6204C38.3369 42.6612 39.9078 41.0903 41.867 41.0903ZM13.6262 12.8496H19.3979L21.0571 16.3797H47.1621C47.6302 16.3797 48.0792 16.5656 48.4102 16.8966C48.7412 17.2277 48.9271 17.6766 48.9271 18.1447C48.9271 18.4448 48.8389 18.7448 48.7153 19.0272L42.3965 30.4471C41.7964 31.5238 40.6314 32.2651 39.3076 32.2651H26.1581L24.5695 35.1421L24.5166 35.3539C24.5166 35.4709 24.563 35.5832 24.6458 35.6659C24.7286 35.7487 24.8408 35.7952 24.9578 35.7952H45.3971V39.3253H24.2165C23.2803 39.3253 22.3824 38.9534 21.7203 38.2913C21.0583 37.6293 20.6864 36.7314 20.6864 35.7952C20.6864 35.1774 20.8453 34.5949 21.11 34.1007L23.5105 29.7764L17.1563 16.3797H13.6262V12.8496ZM24.2165 41.0903C25.1527 41.0903 26.0506 41.4622 26.7127 42.1243C27.3747 42.7863 27.7466 43.6842 27.7466 44.6204C27.7466 45.5567 27.3747 46.4545 26.7127 47.1166C26.0506 47.7786 25.1527 48.1505 24.2165 48.1505C23.2803 48.1505 22.3824 47.7786 21.7203 47.1166C21.0583 46.4545 20.6864 45.5567 20.6864 44.6204C20.6864 42.6612 22.2573 41.0903 24.2165 41.0903ZM40.1019 28.735L45.0087 19.9098H22.6986L26.8641 28.735H40.1019Z" fill="#272727"/>
</svg>
